<?xml version="1.0" encoding="UTF-8" standalone="no"?>
<svg width="24px" height="24px" viewBox="0 0 24 24" version="1.1" xmlns="http://www.w3.org/2000/svg" xmlns:xlink="http://www.w3.org/1999/xlink">
    <!-- Generator: Sketch 40.3 (33839) - http://www.bohemiancoding.com/sketch -->
    <title>Artboard Copy 7</title>
    <desc>Created with Sketch.</desc>
    <defs></defs>
    <g id="Designs" stroke="none" stroke-width="1" fill="none" fill-rule="evenodd">
        <g id="Artboard-Copy-7" fill="#FFFFFF">
            <path d="M17.4464176,1.00457747 L14.5935104,1 C11.388367,1 9.31706251,3.12508973 9.31706251,6.41422968 L9.31706251,8.91055211 L6.44859191,8.91055211 C6.20072199,8.91055211 6,9.11150297 6,9.35937289 L6,12.9762596 C6,13.2241295 6.20095087,13.4248515 6.44859191,13.4248515 L9.31706251,13.4248515 L9.31706251,22.5514081 C9.31706251,22.799278 9.51778451,23 9.76565442,23 L13.5081926,23 C13.7560625,23 13.9567845,22.7990491 13.9567845,22.5514081 L13.9567845,13.4248515 L17.3106957,13.4248515 C17.5585656,13.4248515 17.7592876,13.2241295 17.7592876,12.9762596 L17.7606608,9.35937289 C17.7606608,9.24035871 17.713284,9.12637974 17.6292875,9.04215432 C17.5452909,8.9579289 17.4308542,8.91055211 17.31184,8.91055211 L13.9567845,8.91055211 L13.9567845,6.79438844 C13.9567845,5.77727495 14.1991615,5.26093651 15.5241097,5.26093651 L17.4459599,5.26024989 C17.6936009,5.26024989 17.8943229,5.05929902 17.8943229,4.81165798 L17.8943229,1.45316938 C17.8943229,1.20575721 17.6938298,1.00503522 17.4464176,1.00457747 L17.4464176,1.00457747 Z" id="Shape"></path>
        </g>
    </g>
</svg>