<?xml version="1.0" encoding="UTF-8" standalone="no"?>
<svg width="24px" height="24px" viewBox="0 0 24 24" version="1.1" xmlns="http://www.w3.org/2000/svg" xmlns:xlink="http://www.w3.org/1999/xlink">
    <!-- Generator: Sketch 40.3 (33839) - http://www.bohemiancoding.com/sketch -->
    <title>Artboard Copy 6</title>
    <desc>Created with Sketch.</desc>
    <defs></defs>
    <g id="Designs" stroke="none" stroke-width="1" fill="none" fill-rule="evenodd">
        <g id="Artboard-Copy-6" fill="#FFFFFF">
            <path d="M22.5108009,5.79907418 C22.3396547,6.01664928 22.1611632,6.21878822 21.9745918,6.40549113 C21.7880203,6.59145913 21.5860238,6.77816205 21.368602,6.96486496 C21.1511803,7.15156788 20.9337584,7.32283478 20.7163366,7.47793059 L20.7163366,7.61832531 C20.7163366,7.64919749 20.723682,7.69550569 20.7391071,7.75798497 C20.7552669,7.82046438 20.7626122,7.86677258 20.7626122,7.89764463 L20.7626122,8.08434768 C20.7626122,9.54562899 20.4827551,11.0466031 19.9237755,12.5857999 C19.3640613,14.1249967 18.5406497,15.501012 17.4535408,16.7131111 C16.3656973,17.9259453 15.0222363,18.9292898 13.4216888,19.7216748 C11.8211412,20.5147948 9.99582647,20.8955512 7.94501015,20.864679 C7.29201028,20.8955512 6.6632499,20.8573286 6.05726014,20.7478059 C5.45127038,20.6390184 4.85262594,20.5074442 4.26279584,20.3516135 C3.67223131,20.1965177 3.11251711,19.9862931 2.58438782,19.7216748 C2.05625855,19.4577915 1.52812927,19.1858226 1,18.9057682 C1.0932857,18.874896 1.1865714,18.8668104 1.27985711,18.8822466 C1.37240826,18.8976826 1.46569396,18.9057682 1.55897966,18.9057682 C1.65226537,18.9057682 1.74555107,18.9131187 1.83883677,18.9292898 C1.93212246,18.9447258 2.02540816,18.9366404 2.11869386,18.9057682 C2.64682315,18.9366404 3.15952722,18.8976826 3.65680611,18.7888951 C4.15408497,18.6801075 4.6352042,18.5558839 5.10163264,18.4162242 C5.56732657,18.2758295 6.01832986,18.0736904 6.45317348,17.8098071 C6.8880171,17.5451888 7.30743544,17.288656 7.71142861,17.0402087 C7.21488436,16.9777295 6.74037595,16.8770274 6.29010717,16.7366327 C5.8398384,16.5969731 5.42776539,16.379398 5.05462253,16.0839074 C4.68221431,15.7884169 4.36342688,15.4620543 4.09972953,15.1040845 C3.83529768,14.7468498 3.62522118,14.31905 3.4702347,13.8214205 C3.53267003,13.8838999 3.60245066,13.914772 3.67957663,13.914772 C3.75743712,13.914772 3.83529768,13.9228576 3.9131581,13.9382936 C3.99028416,13.9537298 4.06079925,13.9537298 4.12250002,13.9382936 C4.18493542,13.9228576 4.24737069,13.9302081 4.30907145,13.9618152 C4.43320761,13.9302081 4.54191848,13.9228576 4.6352042,13.9382936 C4.72848991,13.9537298 4.82985546,13.9456442 4.93856633,13.914772 C5.0472772,13.8838999 5.14790824,13.8684638 5.24119396,13.8684638 C5.33447967,13.8684638 5.42776539,13.8368567 5.52105111,13.7751123 C4.99292177,13.6817609 4.51106803,13.4950579 4.07622455,13.2150034 C3.64138091,12.9349491 3.26015826,12.6085865 2.93402558,12.2359156 C2.60789289,11.8625097 2.35154084,11.4273595 2.16496945,10.9297299 C1.97839805,10.4321005 1.88511235,9.91903483 1.88511235,9.39053318 L1.88511235,9.32070335 C2.04083336,9.42140536 2.20389971,9.50740626 2.3750459,9.5537146 C2.54545757,9.6000228 2.71660378,9.65441648 2.88774998,9.71689589 C3.05816166,9.77937517 3.22930787,9.81833295 3.40045407,9.83376898 C3.57086575,9.849205 3.7500918,9.87272663 3.93592872,9.90359881 C3.62522118,9.65441648 3.35344395,9.40596933 3.12059697,9.15752206 C2.88774998,8.90833973 2.67767353,8.61284933 2.49110214,8.2710506 C2.30526527,7.92925186 2.16496945,7.58671807 2.07168375,7.24491947 C1.97839805,6.90312074 1.93212246,6.51427875 1.93212246,6.07912856 C1.93212246,5.92329769 1.94754766,5.73659477 1.97839805,5.51901967 C2.00998298,5.30144458 2.04817868,5.10739111 2.09518881,4.93612435 C2.14219892,4.76485745 2.20389971,4.5781544 2.28176021,4.37601546 C2.35962071,4.17387639 2.44482654,4.0106951 2.53811225,3.88647146 C3.09709191,4.53993181 3.71850688,5.15369931 4.40235716,5.72924435 C5.08620748,6.3040542 5.82441324,6.78624765 6.61623979,7.17508951 C7.40880098,7.5639315 8.24029245,7.88220861 9.10997956,8.13139094 C9.98040131,8.37983808 10.8816734,8.51949787 11.8137959,8.55110497 C11.8137959,8.48862569 11.8057159,8.41071026 11.7902908,8.3173588 C11.7748656,8.22474239 11.7587058,8.13874135 11.7432807,8.06082605 C11.7278555,7.98364567 11.7205102,7.89764463 11.7205102,7.80429317 L11.7205102,7.57128205 C11.7205102,6.91855676 11.8365664,6.32757583 12.0701479,5.79907418 C12.3029948,5.27057253 12.6217822,4.78837908 13.0250409,4.35322889 C13.4290341,3.91734364 13.9108878,3.59098093 14.470602,3.37340583 C15.0295816,3.15583087 15.6201462,3.03160723 16.2415611,3 C16.5522686,3.03160723 16.8629762,3.07056489 17.1736837,3.11687309 C17.4843911,3.16318129 17.7796734,3.25653275 18.0595306,3.3969276 C18.3386531,3.53658726 18.6030851,3.69241799 18.8513571,3.86294983 C19.1003639,4.03421673 19.3177857,4.24444127 19.5043571,4.49288855 C19.7526292,4.39953709 20.001636,4.32162165 20.2499081,4.25987743 C20.4989149,4.19739802 20.747187,4.11948258 20.9954591,4.02613112 C21.2444658,3.93351472 21.4773129,3.83207766 21.6947346,3.72329017 C21.9121565,3.61450256 22.1295782,3.48219345 22.3477346,3.32709763 C22.2852992,3.63802419 22.1839337,3.90190762 22.0443724,4.11948258 C21.9048112,4.33705768 21.75717,4.56271838 21.601449,4.79646455 C21.4464626,5.02947581 21.2598911,5.22352927 21.0424693,5.37936001 C20.8250475,5.53445583 20.6076258,5.70572272 20.3894694,5.89242564 C20.6076258,5.82994623 20.8323928,5.78363802 21.0659744,5.75203092 C21.2988214,5.72115875 21.524323,5.66676494 21.7417447,5.5888495 C21.9591666,5.5109342 22.1685085,5.44110437 22.3705051,5.37936001 C22.5725017,5.31688073 22.7825781,5.2389653 23,5.14561384 C22.8450135,5.37936001 22.6812126,5.58149908 22.5108009,5.79907418 L22.5108009,5.79907418 Z" id="tw-copy-3"></path>
        </g>
    </g>
</svg>